<mxfile>
  <diagram name="System Architecture">
    <mxGraphModel dx="1000" dy="1000" grid="1" gridSize="10" guides="1" tooltips="1" connect="1" arrows="1" fold="1" page="1" pageScale="1" pageWidth="850" pageHeight="1100" math="0" shadow="0">
      <root>
        <mxCell id="0" />
        <mxCell id="1" parent="0" />
        
        <!-- User Device -->
        <mxCell id="2" value="User Device" style="rounded=1;whiteSpace=wrap;html=1;fillColor=#D9EAD3;strokeColor=#6AA84F;" vertex="1" parent="1">
          <mxGeometry x="50" y="50" width="120" height="60" as="geometry" />
        </mxCell>

        <!-- Frontend -->
        <mxCell id="3" value="Frontend (React Native)" style="rounded=1;whiteSpace=wrap;html=1;fillColor=#CFE2F3;strokeColor=#3C78D8;" vertex="1" parent="1">
          <mxGeometry x="200" y="50" width="160" height="60" as="geometry" />
        </mxCell>

        <!-- Backend -->
        <mxCell id="4" value="Backend (Flask with DeepLab Model)" style="rounded=1;whiteSpace=wrap;html=1;fillColor=#FCE5CD;strokeColor=#E69138;" vertex="1" parent="1">
          <mxGeometry x="400" y="50" width="160" height="60" as="geometry" />
        </mxCell>

        <!-- DeepLab Model -->
        <mxCell id="5" value="DeepLab Model" style="rounded=1;whiteSpace=wrap;html=1;fillColor=#F4CCCC;strokeColor=#CC0000;" vertex="1" parent="1">
          <mxGeometry x="600" y="50" width="160" height="60" as="geometry" />
        </mxCell>

        <!-- Databases -->
        <mxCell id="6" value="Databases (Nutrition, Glycemic Index, Physical Properties)" style="rounded=1;whiteSpace=wrap;html=1;fillColor=#FFF2CC;strokeColor=#BF9000;" vertex="1" parent="1">
          <mxGeometry x="400" y="150" width="200" height="80" as="geometry" />
        </mxCell>

        <!-- Arrows -->
        <mxCell id="7" style="edgeStyle=orthogonalEdgeStyle;rounded=0;orthogonalLoop=1;jettySize=auto;html=1;strokeColor=#000000;" edge="1" parent="1" source="2" target="3">
          <mxGeometry relative="1" as="geometry" />
        </mxCell>

        <mxCell id="8" style="edgeStyle=orthogonalEdgeStyle;rounded=0;orthogonalLoop=1;jettySize=auto;html=1;strokeColor=#000000;" edge="1" parent="1" source="3" target="4">
          <mxGeometry relative="1" as="geometry" />
        </mxCell>

        <mxCell id="9" style="edgeStyle=orthogonalEdgeStyle;rounded=0;orthogonalLoop=1;jettySize=auto;html=1;strokeColor=#000000;" edge="1" parent="1" source="4" target="5">
          <mxGeometry relative="1" as="geometry" />
        </mxCell>

        <mxCell id="10" style="edgeStyle=orthogonalEdgeStyle;rounded=0;orthogonalLoop=1;jettySize=auto;html=1;strokeColor=#000000;" edge="1" parent="1" source="4" target="6">
          <mxGeometry relative="1" as="geometry" />
        </mxCell>
      </root>
    </mxGraphModel>
  </diagram>
</mxfile>
